<svg width="19" height="22" viewBox="0 0 19 22" fill="none" xmlns="http://www.w3.org/2000/svg">
<path d="M7.61538 0C6.90805 0 6.21394 0.138822 5.71154 0.634615C5.20913 1.13041 5.05048 1.83444 5.05048 2.5649H1.69231C1.22626 2.5649 0.846154 2.94501 0.846154 3.41106H0V5.10336H18.6154V3.41106H17.7692C17.7692 2.94501 17.3891 2.5649 16.9231 2.5649H13.5649C13.5649 1.83444 13.4062 1.13041 12.9038 0.634615C12.4014 0.138822 11.7073 0 11 0H7.61538ZM7.61538 1.74519H11C11.4627 1.74519 11.6082 1.85427 11.6611 1.90385C11.7139 1.95343 11.8197 2.09225 11.8197 2.5649H6.79567C6.79567 2.09225 6.90144 1.95343 6.95433 1.90385C7.00721 1.85427 7.15264 1.74519 7.61538 1.74519ZM1.69231 5.94952V19.488C1.69231 20.8861 2.83263 22.0264 4.23077 22.0264H14.3846C15.7828 22.0264 16.9231 20.8861 16.9231 19.488V5.94952H1.69231ZM5.07692 8.48798H6.76923V18.6418H5.07692V8.48798ZM8.46154 8.48798H10.1538V18.6418H8.46154V8.48798ZM11.8462 8.48798H13.5385V18.6418H11.8462V8.48798Z" fill="white"/>
</svg>
