<svg width="57" height="57" viewBox="0 0 57 57" fill="none" xmlns="http://www.w3.org/2000/svg">
<path d="M28.4431 0C12.7596 0 0 12.7853 0 28.5002C0 44.2151 12.7596 57 28.4431 57C44.1266 57 56.8862 44.2151 56.8862 28.5002C56.8862 12.7853 44.1266 0 28.4431 0ZM28.4431 51.8182C15.611 51.8182 5.17147 41.3578 5.17147 28.5002C5.17147 15.6425 15.611 5.18182 28.4431 5.18182C41.2753 5.18182 51.7148 15.6425 51.7148 28.5002C51.7148 41.3578 41.2751 51.8182 28.4431 51.8182Z" fill="white"/>
<path d="M28.4428 12.0909C26.5421 12.0909 24.9958 13.6413 24.9958 15.547C24.9958 17.451 26.5421 19 28.4428 19C30.3435 19 31.8898 17.451 31.8898 15.547C31.8898 13.6413 30.3435 12.0909 28.4428 12.0909Z" fill="white"/>
<path d="M28.443 24.1818C27.015 24.1818 25.8573 25.3419 25.8573 26.7727V42.3182C25.8573 43.749 27.015 44.9091 28.443 44.9091C29.8711 44.9091 31.0288 43.749 31.0288 42.3182V26.7727C31.0288 25.3419 29.8711 24.1818 28.443 24.1818Z" fill="white"/>
</svg>
