<svg width="354" height="405" viewBox="0 0 354 405" fill="none" xmlns="http://www.w3.org/2000/svg">
<path d="M200.27 176.194L151.882 176.194L102.257 225.819L102.257 274.333L200.27 176.194Z" fill="#2B313A"/>
<path d="M122.27 306.194L73.8819 306.194L24.2569 355.819L24.2569 404.333L122.27 306.194Z" fill="#2B313A"/>
<path d="M155.063 174.139L203.451 174.139L253.076 124.514L253.076 76L155.063 174.139Z" fill="#2B313A"/>
<path d="M76.0626 304.139L124.451 304.139L174.076 254.514L174.076 206L76.0626 304.139Z" fill="#2B313A"/>
<path d="M227.063 258.139L275.451 258.139L325.076 208.514L325.076 160L227.063 258.139Z" fill="#333942"/>
<path d="M229.063 152.139L277.451 152.139L327.076 102.514L327.076 54L229.063 152.139Z" fill="#2B313A"/>
<path d="M2.06256 326.139L50.451 326.139L100.076 276.514L100.076 228L2.06256 326.139Z" fill="#2B313A"/>
<path d="M273.27 155.194L224.882 155.194L175.257 204.819L175.257 253.333L273.27 155.194Z" fill="#2B313A"/>
<path d="M351.27 129.194L302.882 129.194L253.257 178.819L253.257 227.333L351.27 129.194Z" fill="#333942"/>
<path d="M353.27 24.1943L304.882 24.1941L255.257 73.8191L255.257 122.333L353.27 24.1943Z" fill="#2B313A"/>
<path d="M179.194 146.27L179.194 97.882L228.819 48.257L277.333 48.2569L179.194 146.27Z" fill="#2B313A"/>
<path d="M28.1943 296.27L28.1942 247.882L77.8192 198.257L126.333 198.257L28.1943 296.27Z" fill="#333942"/>
</svg>
