<svg width="65" height="65" viewBox="0 0 65 65" fill="none" xmlns="http://www.w3.org/2000/svg">
<g clip-path="url(#clip0)">
<path d="M45.435 53.9175C46.5886 52.1302 46.9001 49.9268 46.2871 47.8898C45.6741 45.8527 44.1984 44.1871 42.25 43.3333H42.1525C42.2425 43.0913 42.2759 42.8319 42.25 42.575V41.6975C42.2921 41.0491 41.8983 40.4518 41.2859 40.235C38.4173 39.4726 35.4676 39.0579 32.5 39C29.5649 39.248 26.6484 39.6822 23.7684 40.3C23.1211 40.4922 22.6965 41.111 22.75 41.7841V42.575C22.7478 42.8215 22.7996 43.0655 22.9017 43.29H22.8042C20.1167 44.4282 18.3834 47.0774 18.4167 49.9958C18.416 51.3811 18.8106 52.7378 19.5542 53.9066C16.6725 50.9708 6.67335 42.0225 8.16835 30.3333C8.46645 28.9084 8.87947 27.5099 9.40335 26.1516C10.1436 24.2413 11.1033 22.4236 12.2633 20.735C14.8297 16.9115 18.3922 13.8622 22.5658 11.9166C28.8729 9.02453 36.1271 9.02453 42.4342 11.9166C46.5995 13.8549 50.1603 16.8878 52.7367 20.6916C53.8967 22.3803 54.8565 24.198 55.5967 26.1083C55.592 26.1297 55.592 26.1519 55.5967 26.1733C60.6667 39.9858 48.6417 50.6566 45.435 53.9175V53.9175Z" fill="#E8EDFC"/>
<path d="M55.6184 26.2167C55.6137 26.1953 55.6137 26.1731 55.6184 26.1517C54.8781 24.2414 53.9184 22.4236 52.7584 20.735C50.182 16.9122 46.6128 13.8636 42.4342 11.9167C39.3183 10.485 35.9291 9.74584 32.5 9.75002C31.9583 9.75002 31.4167 9.77168 30.875 9.81502C33.7498 10.0027 36.5659 10.715 39.1842 11.9167C43.3495 13.855 46.9103 16.8879 49.4867 20.6917C50.6467 22.3803 51.6065 24.1981 52.3467 26.1083C52.342 26.1298 52.342 26.1519 52.3467 26.1733C55.965 36.0208 50.9167 44.2433 46.5833 49.3567V49.9958C46.5871 51.3865 46.1883 52.7485 45.435 53.9175C48.6417 50.6567 60.6667 39.9858 55.6184 26.2167V26.2167Z" fill="#CAD9FC"/>
<path d="M42.25 41.6975C42.25 42.7808 42.25 42.9217 42.0984 43.29C41.8709 43.875 42.2392 43.5067 33.0417 49.1725C32.7065 49.366 32.2935 49.366 31.9584 49.1725C22.75 43.4958 23.14 43.875 22.9017 43.3333C22.7264 42.8369 22.6743 42.3052 22.75 41.7842C22.6965 41.1111 23.1211 40.4923 23.7684 40.3C26.6484 39.6822 29.5649 39.248 32.5 39C35.4676 39.0579 38.4174 39.4726 41.2859 40.235C41.8983 40.4518 42.2921 41.0492 42.25 41.6975Z" fill="#7FACFA"/>
<path d="M45.435 53.9177C45.0445 54.2925 44.7025 54.7147 44.4167 55.1743C42.3716 57.1515 39.3366 57.7016 36.7276 56.5679C34.1187 55.4342 32.45 52.8401 32.5 49.996C32.5 49.2918 32.435 49.5952 32.5 49.3243C32.6949 49.3277 32.8866 49.275 33.0525 49.1727C42.25 43.496 41.86 43.8752 42.0983 43.3335C44.0781 44.151 45.594 45.8036 46.238 47.8465C46.882 49.8893 46.588 52.1125 45.435 53.9177V53.9177Z" fill="#CAD9FC"/>
<path d="M44.0808 60.5367C37.0135 65.0282 27.9865 65.0282 20.9192 60.5367C21.6311 58.7709 21.4995 56.7769 20.5617 55.12C21.8604 56.4104 23.6167 57.1348 25.4475 57.135C29.359 57.0934 32.5062 53.9075 32.5 49.9958C32.4639 53.9244 35.6132 57.1416 39.5417 57.1892C41.3687 57.1861 43.1206 56.4619 44.4167 55.1742C43.4922 56.8168 43.3685 58.7916 44.0808 60.5367V60.5367Z" fill="#E8EDFC"/>
<path d="M44.4166 55.1743C43.3374 56.2375 41.9422 56.9218 40.4408 57.1243C40.2591 58.2752 40.39 59.4539 40.82 60.5368C37.8093 62.4014 34.395 63.516 30.8641 63.7868C31.4058 63.8302 31.9475 63.8518 32.4891 63.8518C36.5883 63.8323 40.6001 62.6651 44.07 60.4827C43.3784 58.7516 43.5058 56.8007 44.4166 55.1743Z" fill="#CAD9FC"/>
<path d="M32.5 49.996C32.55 52.8401 30.8812 55.4342 28.2723 56.5679C25.6634 57.7016 22.6284 57.1515 20.5833 55.1743C20.3028 54.7077 19.9602 54.2813 19.565 53.9068C18.42 52.1015 18.1304 49.8827 18.7738 47.844C19.4172 45.8053 20.9278 44.1546 22.9016 43.3335C23.0031 43.5933 23.1854 43.8136 23.4216 43.9618C32.6842 49.6602 32.0883 49.3785 32.4891 49.3785C32.435 49.5735 32.5 49.3893 32.5 49.996V49.996Z" fill="#CAD9FC"/>
<path d="M24.7108 29.4017C24.1671 31.2306 22.4912 32.4886 20.5833 32.5001C19.4139 32.4801 18.3003 31.9964 17.4876 31.1552C16.6749 30.3141 16.2297 29.1845 16.25 28.0151C16.2406 27.7934 16.2588 27.5714 16.3042 27.3542L24.7108 29.4017Z" fill="#E8EDFC"/>
<path d="M48.75 28.0151C48.7703 29.1845 48.3251 30.3141 47.5124 31.1552C46.6997 31.9964 45.5861 32.4801 44.4167 32.5001C42.5048 32.4933 40.8232 31.2344 40.2783 29.4017L48.75 27.3542C48.7719 27.574 48.7719 27.7953 48.75 28.0151Z" fill="#E8EDFC"/>
<path d="M59.67 20.3017C59.4642 20.6376 59.2367 20.9842 59.0092 21.3851C58.7817 21.7859 58.5433 22.0892 58.2942 22.4684L55.7483 26.1626L55.6075 26.2167C54.8673 24.3064 53.9075 22.4887 52.7475 20.8001C53.2145 20.3642 53.6593 19.905 54.08 19.4242C59.5833 13.0001 58.76 8.33089 57.5142 5.26506C56.7883 3.47756 54.73 3.41256 53.105 4.45256L43.6692 11.0501L56.8425 1.73339C57.8892 1.07376 59.1735 0.908809 60.3529 1.28249C61.5324 1.65616 62.4874 2.53051 62.9633 3.67256C64.5125 7.43173 64.6533 12.3067 59.67 20.3017Z" fill="#7FACFA"/>
<path d="M54.0691 19.316C53.6484 19.7967 53.2037 20.2559 52.7367 20.6918C50.1603 16.888 46.5995 13.8551 42.4342 11.9168L43.3225 11.2993H43.3983L43.6692 11.1043L53.0833 4.45265C54.7083 3.36932 56.7666 3.47765 57.4925 5.26515C58.76 8.33099 59.5833 13.0002 54.0691 19.316Z" fill="#CAD9FC"/>
<path d="M52.7414 20.6919L52.7259 20.7072Z" fill="#E8EDFC"/>
<path d="M12.2669 20.6917C11.1069 22.3804 10.1471 24.1981 9.40693 26.1084L9.2661 26.0542L6.72027 22.4034C6.4711 22.0351 6.23277 21.6884 6.00527 21.3201C5.77777 20.9517 5.55027 20.6159 5.34443 20.2367C0.350269 12.3067 0.491102 7.43173 2.04027 3.67256C2.51623 2.53051 3.47117 1.65616 4.65065 1.28249C5.83013 0.908809 7.11434 1.07376 8.1611 1.73339L22.2444 11.6784L11.9203 4.45256C10.2953 3.36923 8.23693 3.47756 7.5111 5.26506C6.2436 8.3309 5.42027 13.0001 10.9344 19.3159C11.3552 19.7966 11.7999 20.2558 12.2669 20.6917V20.6917Z" fill="#7FACFA"/>
<path d="M63.31 44.1242C63.2476 44.5288 62.9624 44.8637 62.5728 44.9897C62.1833 45.1157 61.756 45.0114 61.4683 44.72C61.2132 44.4408 60.8121 44.3485 60.4606 44.4881C60.1091 44.6278 59.8807 44.9702 59.8867 45.3483C59.8397 50.8638 57.8093 56.1782 54.1667 60.32C53.7884 60.715 53.1751 60.7661 52.7367 60.4392L49.8333 58.2833C49.522 58.048 49.1082 57.9984 48.75 58.1533C47.1577 58.8525 45.606 59.641 44.1025 60.515C43.3758 58.7527 43.5037 56.7536 44.4492 55.0983C44.8321 54.7195 45.1702 54.2978 45.4567 53.8417C48.7067 50.5917 60.6992 39.91 55.64 26.1408C55.6353 26.1194 55.6353 26.0972 55.64 26.0758C55.835 26 55.5317 26.4008 58.3267 22.3275C58.6625 21.8292 58.8467 21.5692 59.7133 20.2258C63.2775 26 64.8917 34.905 63.31 44.1242V44.1242Z" fill="#F5F5F5"/>
<path d="M59.67 20.3018C58.8034 21.6451 58.5867 21.9051 58.2834 22.4034L57.8717 23.0101C60.4284 28.6218 61.4142 36.2593 60.0384 44.1243C59.9759 44.5289 59.6907 44.8638 59.3012 44.9898C58.9116 45.1158 58.4843 45.0115 58.1967 44.7201C57.9416 44.4409 57.5404 44.3486 57.1889 44.4882C56.8375 44.6279 56.609 44.9703 56.615 45.3484C56.5712 50.5262 54.7895 55.5393 51.5558 59.5834L52.7367 60.4609C53.1804 60.7823 53.7942 60.7219 54.1667 60.3201C57.8093 56.1783 59.8397 50.8639 59.8867 45.3484C59.8807 44.9703 60.1091 44.6279 60.4606 44.4882C60.8121 44.3486 61.2133 44.4409 61.4684 44.7201C61.756 45.0115 62.1833 45.1158 62.5728 44.9898C62.9624 44.8638 63.2476 44.5289 63.31 44.1243C64.8917 34.9051 63.2775 26.0001 59.67 20.3018Z" fill="#CAD9FC"/>
<path d="M20.93 60.5366C20.6592 60.2658 17.2033 58.5974 16.2392 58.1533C15.881 57.9983 15.4672 58.048 15.1558 58.2833L12.2742 60.4499C11.8311 60.7806 11.2101 60.7246 10.8333 60.3199C7.19072 56.1782 5.16033 50.8638 5.11333 45.3483C5.11935 44.9701 4.89088 44.6277 4.53942 44.4881C4.18795 44.3485 3.78677 44.4408 3.53167 44.7199C3.24405 45.0113 2.81674 45.1157 2.42719 44.9896C2.03765 44.8636 1.75243 44.5287 1.69 44.1241C0.108334 34.9049 1.69 25.9999 5.33 20.2908C5.53583 20.6158 5.80667 21.0491 6.71667 22.3924C9.50083 26.4441 9.20833 26.0649 9.40333 26.1408C8.8789 27.5026 8.46587 28.9047 8.16833 30.3333C6.67333 42.0224 16.6725 50.9166 19.5542 53.9066C19.845 54.369 20.1906 54.7945 20.5833 55.1741C21.5005 56.8182 21.6279 58.7881 20.93 60.5366V60.5366Z" fill="#F5F5F5"/>
<path d="M20.5834 55.1743C20.1944 54.7941 19.8525 54.3685 19.565 53.9068C16.6725 50.9709 6.67336 42.0226 8.16836 30.3334C8.46647 28.9085 8.87948 27.51 9.40336 26.1518C9.20836 26.0759 9.50086 26.4551 6.71669 22.4034C5.80669 21.0601 5.53586 20.5834 5.33002 20.3018C4.78593 21.171 4.30095 22.0758 3.87836 23.0101C6.21836 26.4118 5.96919 26.0759 6.15336 26.1518C5.62948 27.51 5.21646 28.9085 4.91836 30.3334C3.42336 42.0226 13.4225 50.9168 16.3042 53.9068C16.595 54.3691 16.9406 54.7947 17.3334 55.1743C18.0245 56.3333 18.2853 57.6988 18.07 59.0309C19.0519 59.4767 20.0069 59.9795 20.93 60.5368C21.6279 58.7883 21.5006 56.8184 20.5834 55.1743V55.1743Z" fill="#CAD9FC"/>
<path d="M22.5658 11.9168C18.3989 13.8474 14.8371 16.8774 12.2633 20.6809C11.7963 20.245 11.3515 19.7858 10.9308 19.3051C5.41665 13.0001 6.23999 8.33093 7.48582 5.26509C8.21165 3.47759 10.27 3.41259 11.9167 4.45259L22.2517 11.6784L22.5658 11.9168Z" fill="#CAD9FC"/>
<path d="M12.2789 20.7072L12.2633 20.6919Z" fill="#E8EDFC"/>
<path d="M2.03664 3.67246C0.487469 7.43163 0.346636 12.3391 5.28664 20.3016C5.58997 20.8 6.1208 21.6016 6.68414 22.4683C5.80664 21.06 5.5358 20.5833 5.32997 20.3016C4.79311 21.175 4.30837 22.0794 3.8783 23.01C1.32164 28.6216 0.335803 36.2592 1.71164 44.1242C1.77407 44.5288 2.05928 44.8637 2.44883 44.9897C2.83837 45.1157 3.26569 45.0114 3.5533 44.72C3.80841 44.4408 4.20959 44.3485 4.56105 44.4881C4.91251 44.6277 5.14099 44.9702 5.13497 45.3483C5.17597 50.861 7.19854 56.1751 10.8333 60.32C11.2116 60.715 11.8249 60.7661 12.2633 60.4392L13.4441 59.5833C10.2027 55.542 8.41331 50.5287 8.36331 45.3483C8.36933 44.9702 8.14085 44.6277 7.78939 44.4881C7.43793 44.3485 7.03674 44.4408 6.78164 44.72C6.49402 45.0114 6.06671 45.1157 5.67716 44.9897C5.28762 44.8637 5.0024 44.5288 4.93997 44.1242C3.5858 36.2592 4.57164 28.6216 7.10664 23.01C7.53671 22.0794 8.02145 21.175 8.55831 20.3016C3.57497 12.3066 3.7158 7.43163 5.3083 3.67246C5.7342 2.65191 6.55475 1.84699 7.58331 1.4408C6.55324 0.988282 5.3843 0.969926 4.34054 1.38988C3.29677 1.80983 2.46627 2.63265 2.03664 3.67246V3.67246Z" fill="white"/>
<path d="M2.65534 11.9167L0.553669 12.4692C-0.315687 9.42435 -0.128586 6.1749 1.0845 3.25L3.08867 4.07333C2.06191 6.56366 1.90916 9.32839 2.65534 11.9167Z" fill="white"/>
<path d="M63.97 3.24982C63.3668 1.80498 62.1543 0.701811 60.659 0.237546C59.1637 -0.226719 57.5396 -0.00431861 56.2241 0.844825L42.3141 10.6815C36.0688 7.98151 28.9825 7.99721 22.7491 10.7248L8.73077 0.812325C7.41806 0.00103354 5.81641 -0.196199 4.3461 0.272382C2.8758 0.740964 1.68362 1.82858 1.08242 3.24982C0.838344 3.79432 1.08052 4.43367 1.62409 4.67982C2.17752 4.90297 2.8072 4.63657 3.03243 4.08399C3.38152 3.23104 4.08868 2.57523 4.96548 2.29132C5.84228 2.0074 6.79963 2.12422 7.58243 2.61066L8.21076 3.05482C7.43137 3.41892 6.81951 4.06564 6.4991 4.86398C4.06159 10.8331 6.42326 16.2498 10.9083 20.8756C10.2575 21.8903 9.67481 22.9471 9.1641 24.039C6.4991 20.2148 3.82326 16.3581 2.65326 11.9165C2.50434 11.3461 1.92664 10.9995 1.35326 11.1365C1.06788 11.2029 0.821579 11.3821 0.670531 11.6331C0.519483 11.8842 0.476574 12.1857 0.55159 12.469C1.34379 15.2437 2.53334 17.8891 4.08326 20.3231C0.38909 26.5198 -0.900078 35.4248 0.627424 44.3081C0.747161 45.0513 1.24409 45.6791 1.93995 45.9663C2.63582 46.2535 3.43087 46.1589 4.03993 45.7164C4.15283 51.3703 6.27241 56.7998 10.0199 61.0347C10.7718 61.8538 12.0216 61.9708 12.9124 61.3056L15.7833 59.1389C17.3495 59.8405 18.879 60.6215 20.3658 61.4789C27.771 66.1822 37.2273 66.1822 44.6325 61.4789C46.1143 60.6226 47.6403 59.8452 49.2041 59.1497L52.0641 61.3164C52.9535 62.0004 54.218 61.8923 54.9783 61.0672C58.733 56.8238 60.8531 51.3815 60.9583 45.7164C61.5674 46.1589 62.3624 46.2535 63.0583 45.9663C63.7542 45.6791 64.2511 45.0513 64.3708 44.3081C65.8983 35.4248 64.6092 26.5198 60.9258 20.3123C65.0533 13.509 65.985 8.16815 63.97 3.24982V3.24982ZM61.9658 4.07315C64.8042 10.9631 59.9941 17.994 55.8558 23.9956C55.3588 22.9106 54.7943 21.8577 54.1658 20.8431C58.5966 16.2498 60.9258 10.8331 58.4991 4.86398C58.183 4.07367 57.5846 3.42893 56.82 3.05482L57.4158 2.64316C58.1935 2.15112 59.1486 2.02748 60.0259 2.30529C60.9032 2.58309 61.6131 3.23402 61.9658 4.08399V4.07315ZM20.4524 53.2889C19.5445 51.8641 19.2623 50.1287 19.6721 48.4897C20.0818 46.8506 21.1475 45.4521 22.6191 44.6223C23.0199 44.9473 31.2858 50.0389 31.4158 50.0389C31.4135 52.4021 30.0098 54.5388 27.8419 55.4793C25.674 56.4199 23.1547 55.9851 21.4274 54.3722C21.1392 53.9797 20.8126 53.6168 20.4524 53.2889ZM32.4991 40.0831C35.3758 40.1364 38.2352 40.5403 41.0141 41.2856C41.1229 41.3937 41.1784 41.5444 41.1658 41.6973C41.1658 42.3148 41.2308 42.8564 41.0033 42.9973L32.4991 48.2514L23.9733 42.9973C23.7566 42.8673 23.8108 42.3689 23.8108 41.7839C23.7964 41.6276 23.8519 41.4729 23.9624 41.3614C26.775 40.7385 29.6274 40.3113 32.4991 40.0831V40.0831ZM42.39 44.6439C43.8616 45.4738 44.9272 46.8723 45.337 48.5113C45.7468 50.1504 45.4646 51.8858 44.5566 53.3106C44.1951 53.6696 43.872 54.0654 43.5925 54.4914C41.8652 56.1042 39.3459 56.539 37.178 55.5985C35.0101 54.658 33.6064 52.5212 33.6041 50.1581C33.7016 50.0389 41.9675 44.9906 42.39 44.6439V44.6439ZM43.3216 42.6939C43.3216 42.6939 43.3216 42.6181 43.3216 42.5748V41.6973C43.3692 40.5565 42.6451 39.5259 41.5558 39.1839L40.3316 38.8914L38.165 31.0373L39.66 30.6689C40.5737 32.455 42.4096 33.5799 44.4158 33.5831C47.3903 33.5423 49.7917 31.1409 49.8325 28.1665C50.2582 28.1301 50.637 27.8816 50.84 27.5056C50.9838 27.2079 50.9838 26.8608 50.84 26.5631L49.7566 24.3965C49.4641 23.9103 48.8459 23.7322 48.3396 23.9882C47.8332 24.2443 47.6102 24.8476 47.8283 25.3715L48.2941 26.314L37.6666 28.9031C37.098 29.0496 36.6133 29.4206 36.3233 29.9312C36.0333 30.4417 35.9629 31.0481 36.1283 31.6114L38.0133 38.3823C34.3954 37.6855 30.6716 37.7556 27.0824 38.5881L28.9241 31.6331C29.0888 31.0667 29.0155 30.4577 28.7211 29.9466C28.4267 29.4355 27.9367 29.0665 27.3641 28.9248L16.7474 26.3465L17.2133 25.404C17.4226 25.056 17.4198 24.6202 17.206 24.275C16.9922 23.9298 16.6033 23.7331 16.1985 23.7655C15.7937 23.798 15.441 24.0541 15.2849 24.429L14.2016 26.5956C14.0407 26.8923 14.0274 27.2471 14.1654 27.5551C14.3035 27.8631 14.5772 28.0891 14.9058 28.1665H15.1658C15.2009 31.1433 17.6056 33.548 20.5824 33.5831C22.5776 33.5822 24.4066 32.4714 25.3274 30.7014L26.8333 31.0698L24.6666 39.0214L23.5833 39.2381C22.419 39.5211 21.6164 40.5867 21.6658 41.7839V42.5748V42.6939C18.9426 44.1577 17.269 47.0237 17.3324 50.1147C15.2374 47.9135 13.4185 45.4652 11.9158 42.8239C13.3269 43.2079 14.7874 43.3795 16.2491 43.3331C16.8474 43.3331 17.3324 42.8481 17.3324 42.2498C17.3324 41.6515 16.8474 41.1664 16.2491 41.1664C14.2882 41.2759 12.3342 40.8529 10.5941 39.9423C9.93741 38.3281 9.49666 36.6343 9.28326 34.9048C11.6586 37.3586 14.8752 38.8218 18.2858 38.9998C18.8841 38.9998 19.3691 38.5147 19.3691 37.9164C19.3691 37.3181 18.8841 36.8331 18.2858 36.8331C14.4926 36.6134 11.0682 34.4894 9.18576 31.1889C9.19561 30.605 9.30176 30.0267 9.49993 29.4773C10.3554 30.5711 11.6181 31.2709 12.9991 31.4164C13.5974 31.4164 14.0824 30.9314 14.0824 30.3331C14.0824 29.7348 13.5974 29.2498 12.9991 29.2498C12.1974 29.2498 11.0274 28.0039 10.3016 26.964C13.4954 17.8679 21.7978 11.5463 31.4158 10.8873V16.2498L26.4108 14.1698C26.0469 13.9768 25.605 14.0068 25.2706 14.2473C24.9361 14.4878 24.767 14.8972 24.8343 15.3036C24.9015 15.71 25.1934 16.0431 25.5874 16.1631L31.4158 18.6006V22.2515L19.6508 20.5831C19.2637 20.5289 18.8772 20.6854 18.6367 20.9934C18.3963 21.3015 18.3385 21.7145 18.4851 22.0768C18.6317 22.4391 18.9604 22.6956 19.3474 22.7498L31.4158 24.4398V25.5231C31.4158 26.1214 31.9008 26.6065 32.4991 26.6065C33.0974 26.6065 33.5825 26.1214 33.5825 25.5231V24.4398L45.6508 22.7498C46.2491 22.666 46.6662 22.1131 46.5825 21.5148C46.4987 20.9165 45.9458 20.4994 45.3475 20.5831L33.5825 22.2948V18.6656L39.4216 16.1631C39.7929 16.0224 40.0575 15.6899 40.1112 15.2965C40.1648 14.9031 39.999 14.5119 39.6789 14.2769C39.3589 14.0419 38.9359 14.0008 38.5766 14.1698L33.5825 16.3365V10.8331C43.2455 11.4122 51.5983 17.7785 54.7183 26.9423C53.9925 27.9931 52.8116 29.2498 51.9991 29.2498C51.4008 29.2498 50.9158 29.7348 50.9158 30.3331C50.9158 30.9314 51.4008 31.4164 51.9991 31.4164C53.3447 31.2752 54.5757 30.5952 55.4116 29.5314C55.5249 30.0899 55.6081 30.6541 55.6608 31.2214C53.7717 34.5004 50.36 36.6092 46.5825 36.8331C45.9842 36.8331 45.4991 37.3181 45.4991 37.9164C45.4991 38.5147 45.9842 38.9998 46.5825 38.9998C50.0054 38.8301 53.2373 37.3709 55.6283 34.9156C55.4194 36.6495 54.9898 38.3497 54.35 39.9748C52.621 40.8597 50.6886 41.2708 48.7491 41.1664C48.1508 41.1664 47.6658 41.6515 47.6658 42.2498C47.6658 42.8481 48.1508 43.3331 48.7491 43.3331C50.1885 43.3743 51.6263 43.2065 53.0175 42.8348C51.5433 45.4713 49.7455 47.9132 47.6658 50.1039C47.7276 47.0161 46.0539 44.1541 43.3325 42.6939H43.3216ZM41.8591 30.1381L47.59 28.7406C47.3454 29.9832 46.4014 30.9705 45.1711 31.2706C43.9408 31.5706 42.6482 31.1286 41.8591 30.1381ZM23.1174 30.1381C22.3215 31.1015 21.0437 31.5233 19.8307 31.2229C18.6177 30.9225 17.6843 29.9533 17.4299 28.7298L23.1174 30.1381ZM52.8766 19.0123C50.6414 16.0324 47.7979 13.5619 44.535 11.7648L53.6891 5.41648C54.6858 4.77732 56.0508 4.58232 56.5166 5.73065C58.4991 10.6598 56.56 15.0365 52.8766 19.0123ZM8.4816 5.67648C8.94743 4.59315 10.3124 4.72315 11.2766 5.34065L20.5174 11.8406C17.2591 13.649 14.4171 16.1218 12.1758 19.099C8.4491 15.069 6.4991 10.6706 8.4816 5.67648V5.67648ZM14.4941 57.4164L11.6449 59.5831C8.17479 55.6379 6.25062 50.5697 6.22826 45.3156C6.2276 44.5015 5.73195 43.7696 4.97624 43.4669C4.22053 43.1641 3.35666 43.3513 2.79409 43.9398C1.41826 36.1398 2.42576 28.0581 5.41576 22.3815L5.8491 23.0206C8.4491 26.8015 8.2216 26.379 8.1566 26.5848C7.71456 27.7652 7.35263 28.974 7.07326 30.2031C7.07326 30.5389 6.97576 31.3623 6.97576 31.4706C6.31493 42.2498 14.5049 50.4181 18.0908 53.9822L18.7299 54.6214C19.0078 55.0393 19.3233 55.4309 19.6724 55.7914C20.2209 56.7369 20.4203 57.8449 20.2358 58.9222C18.8599 58.1747 17.4841 57.5356 16.6716 57.1672C15.9542 56.85 15.1213 56.9453 14.4941 57.4164V57.4164ZM22.2183 60.0489C22.414 59.2742 22.4907 58.4742 22.4458 57.6764C26.2187 59.2013 30.536 57.666 32.4991 54.1014C34.4622 57.666 38.7795 59.2013 42.5525 57.6764C42.5075 58.4742 42.5842 59.2742 42.78 60.0489C36.4122 63.6997 28.586 63.6997 22.2183 60.0489V60.0489ZM59.5825 22.3815C62.5508 28.0581 63.5583 36.1398 62.2475 44.0481C61.6943 43.4411 60.8255 43.2354 60.0589 43.5301C59.2924 43.8247 58.785 44.5594 58.7808 45.3806C58.7493 50.6265 56.826 55.6848 53.3641 59.6264L50.5041 57.4597C49.8815 56.9892 49.0538 56.8898 48.3375 57.1997C47.5358 57.5681 46.1708 58.2072 44.7733 58.9547C44.5943 57.8774 44.7934 56.7713 45.3366 55.8239C45.6858 55.4634 46.0012 55.0718 46.2791 54.6539L46.9291 54.0147C50.8508 50.1148 61.0883 39.9314 56.9825 26.9315C56.7875 26.054 56.3325 27.3106 59.5825 22.3815V22.3815Z" fill="#428DFF"/>
<path d="M1.08333 8.95915C0.485025 8.95915 0 8.47412 0 7.87581C0 7.27751 0.485025 6.79248 1.08333 6.79248C1.68164 6.79248 2.16667 7.27751 2.16667 7.87581C2.16667 8.47412 1.68164 8.95915 1.08333 8.95915Z" fill="#428DFF"/>
</g>
<defs>
<clipPath id="clip0">
<rect width="65" height="65" fill="white"/>
</clipPath>
</defs>
</svg>
