<svg width="65" height="65" viewBox="0 0 65 65" fill="none" xmlns="http://www.w3.org/2000/svg">
<path d="M32.5 0C14.5535 0 0 14.5535 0 32.5C0 50.4465 14.5535 65 32.5 65C50.4465 65 65 50.4465 65 32.5C65 14.5535 50.4465 0 32.5 0ZM48.8046 24.8667V29.2673C46.7295 29.268 44.7134 28.8614 42.8119 28.0592C41.5892 27.543 40.4501 26.8779 39.4082 26.0741L39.4394 39.6192C39.4263 42.6692 38.2196 45.5349 36.0356 47.6935C34.2583 49.4505 32.0062 50.5678 29.5651 50.9295C28.9915 51.0145 28.4078 51.058 27.8175 51.058C25.2044 51.058 22.7236 50.2115 20.6942 48.6497C20.3124 48.3557 19.9471 48.0369 19.5994 47.6935C17.2325 45.3541 16.012 42.1836 16.2175 38.8482C16.3743 36.3092 17.3908 33.8879 19.0854 31.99C21.3274 29.4786 24.4639 28.0847 27.8175 28.0847C28.4078 28.0847 28.9915 28.129 29.5651 28.2139V29.841V34.3671C29.0212 34.1877 28.4404 34.0891 27.8356 34.0891C24.7717 34.0891 22.293 36.5888 22.3388 39.655C22.3679 41.6168 23.4395 43.3316 25.02 44.2769C25.7629 44.7213 26.6174 44.9965 27.5293 45.0465C28.2438 45.0858 28.9298 44.9862 29.5651 44.7765C31.7542 44.0534 33.3333 41.9972 33.3333 39.5722L33.3406 30.5018V13.942H39.4008C39.4066 14.5425 39.4676 15.1284 39.5808 15.6961C40.0382 17.9941 41.3335 19.9878 43.1363 21.3469C44.7082 22.5325 46.6656 23.2353 48.7871 23.2353C48.7885 23.2353 48.806 23.2353 48.8045 23.2339L48.8046 24.8667Z" fill="white"/>
</svg>
