<svg width="65" height="65" viewBox="0 0 65 65" fill="none" xmlns="http://www.w3.org/2000/svg">
<path d="M32.5 65C50.4493 65 65 50.4493 65 32.5C65 14.5507 50.4493 0 32.5 0C14.5507 0 0 14.5507 0 32.5C0 50.4493 14.5507 65 32.5 65Z" fill="white"/>
<path d="M35.8375 45.1175L35.8376 45.1178L35.8376 45.1181L35.8375 45.1175ZM35.8375 45.1175L35.8375 45.1172L35.8375 45.1118L35.8374 45.087C35.8375 45.0646 35.8377 45.0305 35.8385 44.9863C35.8401 44.8978 35.8441 44.7694 35.8537 44.6131C35.873 44.2989 35.9143 43.8797 36.0013 43.45C36.0892 43.0161 36.2188 42.5969 36.4023 42.2683C36.5859 41.9395 36.7956 41.7486 37.0275 41.675C37.1934 41.6224 37.4425 41.658 37.8423 41.9381C38.2336 42.2123 38.6657 42.649 39.1468 43.1836C39.3357 43.3934 39.5374 43.6244 39.7447 43.862C40.0405 44.2009 40.3479 44.5532 40.6466 44.8763C41.1663 45.4384 41.7219 45.9836 42.3017 46.3815C43.1727 46.9798 43.9534 47.2224 44.5316 47.3109C44.8196 47.3549 45.0551 47.3605 45.224 47.3539C45.3085 47.3506 45.3764 47.3443 45.4259 47.3382C45.4403 47.3364 45.4532 47.3347 45.4645 47.3331L51.127 47.2542L51.1389 47.254L51.1508 47.2533L51.1201 46.7543C51.1508 47.2533 51.151 47.2533 51.1513 47.2533L51.1518 47.2533L51.153 47.2532L51.1562 47.253L51.1659 47.2523L51.1977 47.2497C51.224 47.2473 51.2608 47.2436 51.3059 47.2381C51.396 47.2271 51.5212 47.2087 51.6662 47.1784C51.9498 47.119 52.3386 47.0084 52.69 46.7989C53.044 46.5879 53.4041 46.2483 53.5262 45.7237C53.6472 45.2035 53.5069 44.6167 53.116 43.9684L53.1158 43.9682C53.1158 43.9682 53.1145 43.966 53.1113 43.9602L53.0971 43.9346C53.0855 43.9132 53.069 43.883 53.0494 43.8478C53.0096 43.7761 52.9554 43.6813 52.8828 43.5633C52.7377 43.3273 52.5219 43.0034 52.2027 42.5872C51.5646 41.7555 50.5144 40.5572 48.7906 38.9571L48.4505 39.3236L48.7906 38.9571L48.7249 38.8961C47.852 38.086 47.2722 37.5479 46.9224 37.0948C46.5866 36.6597 46.5252 36.3835 46.5903 36.076C46.6704 35.6973 46.9549 35.2039 47.5555 34.3871C47.8499 33.9867 48.1935 33.5423 48.5966 33.021C49.0161 32.4785 49.5001 31.8526 50.0601 31.1062C51.3777 29.35 52.3151 27.9163 52.8832 26.7939C53.167 26.233 53.3671 25.7337 53.4727 25.2996C53.5764 24.8733 53.6022 24.457 53.4731 24.0967L53.473 24.0964C53.3325 23.705 53.021 23.4747 52.7253 23.342C52.4309 23.2099 52.1004 23.1495 51.8141 23.1213C51.5227 23.0926 51.247 23.0947 51.0467 23.1033C50.9458 23.1076 50.8621 23.1137 50.8026 23.1188C50.7736 23.1213 50.7503 23.1236 50.7334 23.1253L44.3711 23.1649C44.3511 23.163 44.3248 23.1608 44.2932 23.159C44.2277 23.1554 44.1372 23.1535 44.0323 23.16C43.8317 23.1725 43.534 23.2183 43.2603 23.3819L43.2595 23.3824C42.9936 23.5419 42.8025 23.7859 42.6895 23.9538C42.6293 24.0432 42.5825 24.1242 42.5504 24.1835C42.5343 24.2134 42.5216 24.2383 42.5125 24.2566L42.5015 24.2791L42.4981 24.2864L42.4969 24.289L42.4964 24.29L42.4962 24.2905L42.4961 24.2907C42.496 24.2908 42.496 24.2909 42.9502 24.4999L42.496 24.2909L42.4884 24.3073L42.4821 24.3241L42.4821 24.3241L42.482 24.3243L42.4816 24.3255L42.4796 24.3308L42.4713 24.3527C42.4638 24.3722 42.4526 24.4015 42.4377 24.4398C42.408 24.5165 42.3638 24.6291 42.3064 24.7718C42.1917 25.0572 42.0244 25.4621 41.8153 25.9382C41.3961 26.8925 40.8125 28.1235 40.1493 29.2494L40.1492 29.2494C38.7264 31.6655 37.7578 32.888 37.1153 33.4679C36.7943 33.7576 36.5881 33.856 36.4787 33.8849C36.4282 33.8982 36.4034 33.8955 36.3971 33.8946C36.3913 33.8937 36.3886 33.8925 36.3844 33.8898L36.114 34.3089L36.3848 33.8901C36.056 33.6775 35.8634 33.1972 35.7967 32.406C35.7529 31.8879 35.7679 31.3478 35.783 30.8062C35.7906 30.5316 35.7982 30.2567 35.7982 29.984C35.7982 28.9127 35.8356 27.9855 35.8681 27.1777C35.8709 27.108 35.8737 27.0393 35.8764 26.9714C35.9101 26.1255 35.9354 25.3937 35.8907 24.7892C35.8461 24.1869 35.7287 23.64 35.4236 23.2016C35.1061 22.7454 34.6345 22.4747 34.027 22.3281C33.2879 22.1494 32.7364 22.0346 30.9201 22.0163L35.8375 45.1175ZM35.3535 46.5858C35.0673 46.8942 34.6754 47.0538 34.4042 47.137C34.2612 47.1808 34.1335 47.2088 34.041 47.226C33.9945 47.2347 33.9561 47.2407 33.9283 47.2447C33.9205 47.2458 33.9136 47.2468 33.9075 47.2476C33.9026 47.2482 33.8982 47.2488 33.8944 47.2493L33.8839 47.2506L33.8802 47.251L33.8789 47.2512L33.8783 47.2512L33.878 47.2513C33.8779 47.2513 33.8778 47.2513 33.8232 46.7543L33.8778 47.2513L33.8506 47.2543H33.8232H31.2849L31.2784 47.2546C31.274 47.2548 31.269 47.255 31.2633 47.2552C31.252 47.2557 31.2383 47.2561 31.2223 47.2566C31.1745 47.258 31.106 47.2592 31.0184 47.2587C30.8431 47.2579 30.5913 47.2505 30.2752 47.225C29.6434 47.174 28.7534 47.0503 27.7054 46.7606C25.6076 46.1806 22.8777 44.9348 20.3271 42.2793L20.3271 42.2793C17.5746 39.4132 15.0036 35.1631 13.1303 31.6597C12.1907 29.9024 11.4211 28.3223 10.8863 27.1813C10.6189 26.6107 10.41 26.1496 10.2677 25.8306C10.1966 25.6711 10.1421 25.5471 10.1053 25.4628L10.0635 25.3665L10.0528 25.3415L10.05 25.335L10.0492 25.3333L10.049 25.3328C10.049 25.3327 10.0489 25.3326 10.5087 25.1361M35.3535 46.5858L10.1504 23.7272C9.85226 24.0803 9.8792 24.5485 9.91317 24.7942C9.93296 24.9373 9.96398 25.0635 9.98948 25.1531C10.0024 25.1984 10.0143 25.2357 10.0234 25.2628C10.0279 25.2763 10.0317 25.2874 10.0347 25.2956L10.0384 25.306L10.0397 25.3095L10.0402 25.3109L10.0405 25.3114L10.0406 25.3117C10.0406 25.3118 10.0406 25.312 10.5087 25.1361M35.3535 46.5858C35.3536 46.5857 35.3536 46.5857 35.3537 46.5856L34.9871 46.2456L35.3535 46.5858ZM10.5087 25.1361L10.0489 25.3326L10.0446 25.3224L10.0406 25.312L10.5087 25.1361ZM26.6683 28.111V28.1109L26.6683 28.1079L26.6684 28.0937C26.6684 28.0807 26.6683 28.0607 26.668 28.0344C26.6674 27.982 26.6659 27.9048 26.662 27.8089C26.6543 27.6165 26.6375 27.3519 26.6015 27.0621C26.5257 26.4525 26.3765 25.8432 26.131 25.5093L26.1309 25.5091C25.9505 25.2634 25.6747 25.0859 25.3675 24.9617C25.063 24.8385 24.7615 24.7814 24.5739 24.7563L26.6683 28.111ZM26.6683 28.111L26.6683 28.1112L26.6683 28.1113V28.1113L26.6681 28.1309L26.6694 28.1508L26.6694 28.1508L26.6694 28.1509L26.6695 28.1514L26.6697 28.1539L26.6704 28.1648L26.6731 28.2093C26.6755 28.2486 26.6789 28.3069 26.6827 28.3817C26.6904 28.5313 26.7001 28.7465 26.7078 29.0072C26.7233 29.5296 26.731 30.23 26.7001 30.9488C26.6691 31.6721 26.5998 32.3932 26.4682 32.9649C26.4022 33.2511 26.3249 33.4808 26.2398 33.6483C26.1519 33.8215 26.0787 33.883 26.0464 33.9006C25.9536 33.9512 25.8625 33.9675 25.7217 33.9195C25.5546 33.8627 25.3104 33.7105 24.9731 33.3691C24.2986 32.6863 23.392 31.3942 22.1199 29.1959L22.1198 29.1959C21.4787 28.0882 20.9136 26.9179 20.5078 26.0211C20.3053 25.5735 20.1431 25.1958 20.0319 24.9305C19.9762 24.7979 19.9333 24.6934 19.9045 24.6224L19.8719 24.5418L19.8638 24.5215L19.8619 24.5167L19.8614 24.5156L19.8614 24.5154L19.8614 24.5154L19.8594 24.5104L19.3964 24.6992C19.8594 24.5104 19.8593 24.5103 19.8593 24.5102L19.8592 24.51L19.859 24.5095L19.8586 24.5084L19.8575 24.5058L19.8544 24.4985L19.8447 24.4762C19.8367 24.4581 19.8255 24.4336 19.8111 24.404C19.7826 24.3453 19.7408 24.265 19.6861 24.1752C19.5813 24.0031 19.4087 23.7616 19.1636 23.5815L19.1633 23.5812C18.8952 23.3845 18.5907 23.265 18.3711 23.1955C18.258 23.1597 18.1597 23.1347 18.0886 23.1185C18.053 23.1104 18.0238 23.1044 18.0026 23.1003L17.9768 23.0954L17.9687 23.094L17.9659 23.0935L17.9648 23.0933L17.9643 23.0932L17.9641 23.0932C17.964 23.0932 17.9639 23.0932 17.8814 23.5863L17.9639 23.0932L17.9213 23.0861L17.8781 23.0863L11.7805 23.1263L11.7805 23.1262L11.7699 23.1265L11.7838 23.6263C11.7699 23.1265 11.7698 23.1265 11.7697 23.1265L11.7694 23.1265L11.7689 23.1265L11.7676 23.1266L11.7639 23.1267L11.7526 23.1271C11.7433 23.1275 11.7307 23.1281 11.7152 23.129C11.6841 23.1308 11.6408 23.1338 11.5885 23.1387C11.4846 23.1485 11.3407 23.1664 11.1827 23.1992C10.9027 23.2572 10.4367 23.3881 10.1504 23.7272L26.6683 28.111ZM24.1229 24.4665C24.2374 24.6588 24.424 24.7362 24.5737 24.7563L30.9199 22.0163C29.7758 22.0044 28.6986 22.0057 27.7659 22.0796C26.8426 22.1528 26.0063 22.3002 25.3703 22.6118C24.9301 22.8274 24.5472 23.1684 24.3143 23.4756C24.2055 23.6191 24.0869 23.8101 24.0494 24.0136C24.0302 24.1178 24.0201 24.2939 24.1229 24.4665Z" fill="#6A7995" stroke="white"/>
</svg>
