<svg width="150" height="150" viewBox="0 0 150 150" fill="none" xmlns="http://www.w3.org/2000/svg">
<path d="M147.702 90.1655H124.535V2.22773C124.535 0.997559 123.538 0 122.308 0H78.2019C76.9714 0 75.9742 0.997559 75.9742 2.22773V29.1287H22.0665C20.836 29.1287 19.8387 30.1263 19.8387 31.3564V65.6344H2.29927C1.0688 65.6344 0.0715332 66.6319 0.0715332 67.8621V147.772C0.0715332 149.002 1.0688 150 2.29927 150H14.0406C14.0426 150 14.0444 150 14.0461 150H49.6875C49.6896 150 49.6914 150 49.6931 150H60.2253C60.2274 150 60.2291 150 60.2309 150H97.9518C97.9539 150 97.9556 150 97.9574 150H108.211C108.213 150 108.215 150 108.217 150H115.632H140.286H147.701C148.932 150 149.929 149.002 149.929 147.772V92.3933C149.93 91.1631 148.933 90.1655 147.702 90.1655ZM80.4296 4.45547H120.08V17.5456H80.4296V4.45547V4.45547ZM80.4296 38.1671H104.923C106.153 38.1671 107.15 37.1695 107.15 35.9394C107.15 34.7092 106.153 33.7116 104.923 33.7116H80.4296V31.3567V22.0011H120.08V33.7116H115.319C114.089 33.7116 113.091 34.7092 113.091 35.9394C113.091 37.1695 114.089 38.1671 115.319 38.1671H120.08V49.8776H80.4296V38.1671V38.1671ZM47.4598 145.544H29.1923H22.0665H16.2739V133.743C16.2739 132.513 15.2763 131.516 14.0461 131.516C12.816 131.516 11.8184 132.513 11.8184 133.743V145.544H4.527V70.0898H19.8387V88.3831H14.0461C12.816 88.3831 11.8184 89.3807 11.8184 90.6108V123.347C11.8184 124.577 12.816 125.575 14.0461 125.575C15.2763 125.575 16.2739 124.577 16.2739 123.347V92.8389H30.9768H47.4598V145.544ZM58.0038 145.544H51.9153V137.753H58.0038V145.544ZM58.0038 133.298H51.9153V126.524H58.0038V133.298ZM58.0038 122.069H51.9153V115.296H58.0038V122.069ZM58.0038 110.84H51.9153V104.067H58.0038V110.84ZM58.0038 99.612H51.9153V92.8389H58.0038V99.612ZM30.9768 65.9259C29.7463 65.9259 28.7491 66.9234 28.7491 68.1536C28.7491 69.3838 29.7463 70.3813 30.9768 70.3813H58.0038V77.1545H50.7153C49.4848 77.1545 48.4875 78.1521 48.4875 79.3822C48.4875 80.6124 49.4848 81.61 50.7153 81.61H58.0038V88.3831H49.6875H30.9768H24.2942V33.5842H75.9742V65.9259H69.2916H60.2312H30.9768ZM95.7247 145.544H78.2019H62.4589V70.3816H69.2916H78.2019V70.4991H95.7247V145.544ZM80.4296 65.9259V54.3328H120.08V65.9259H80.4296ZM120.08 70.4988V82.2085H100.18V70.4988H120.08V70.4988ZM105.99 145.544H100.18V135.163H105.99V145.544ZM105.99 130.708H100.18V118.996H105.99V130.708ZM105.99 114.54H100.18V102.831H105.99V114.54ZM105.99 92.3933V98.376H100.18V86.6643H120.08V90.1655H108.218C106.987 90.1655 105.99 91.1631 105.99 92.3933ZM138.059 145.545H122.308L117.861 145.544V142.092H138.059V145.545ZM138.059 137.637H117.861V134.185H138.059V137.637ZM138.059 129.729H117.861V126.277H138.059V129.729ZM138.059 121.822H117.861V118.37H138.059V121.822ZM138.059 113.915H117.861V110.463H138.059V113.915ZM138.059 106.007H117.861V102.555H138.059V106.007ZM145.475 145.545H142.514V139.865V131.957V124.05V116.142V108.235V100.327C142.514 99.0973 141.517 98.0997 140.287 98.0997H115.633C114.403 98.0997 113.406 99.0973 113.406 100.327V108.235V116.142V124.05V131.958V139.865V145.544H110.445V94.621H145.475V145.545V145.545Z" fill="white"/>
<path d="M41.8034 77.1545H30.9762C29.7457 77.1545 28.7484 78.1521 28.7484 79.3823C28.7484 80.6124 29.7457 81.61 30.9762 81.61H41.8034C43.0339 81.61 44.0312 80.6124 44.0312 79.3823C44.0312 78.1521 43.0339 77.1545 41.8034 77.1545Z" fill="white"/>
<path d="M69.2912 43.4689H30.9762C29.7457 43.4689 28.7484 44.4664 28.7484 45.6966C28.7484 46.9268 29.7457 47.9243 30.9762 47.9243H69.2912C70.5217 47.9243 71.5189 46.9268 71.5189 45.6966C71.5189 44.4664 70.5217 43.4689 69.2912 43.4689Z" fill="white"/>
<path d="M69.2912 54.6975H30.9762C29.7457 54.6975 28.7484 55.6951 28.7484 56.9252C28.7484 58.1554 29.7457 59.153 30.9762 59.153H69.2912C70.5217 59.153 71.5189 58.1554 71.5189 56.9252C71.5189 55.6951 70.5217 54.6975 69.2912 54.6975Z" fill="white"/>
<path d="M22.8296 98.2509C21.5991 98.2509 20.6019 99.2484 20.6019 100.479V105.528C20.6019 106.758 21.5991 107.756 22.8296 107.756C24.0601 107.756 25.0573 106.758 25.0573 105.528V100.479C25.0573 99.2484 24.0601 98.2509 22.8296 98.2509Z" fill="white"/>
<path d="M40.9028 98.2509C39.6724 98.2509 38.6751 99.2484 38.6751 100.479V105.528C38.6751 106.758 39.6724 107.756 40.9028 107.756C42.1333 107.756 43.1306 106.758 43.1306 105.528V100.479C43.1306 99.2484 42.1333 98.2509 40.9028 98.2509Z" fill="white"/>
<path d="M31.8662 98.2509C30.6358 98.2509 29.6385 99.2484 29.6385 100.479V105.528C29.6385 106.758 30.6358 107.756 31.8662 107.756C33.0967 107.756 34.094 106.758 34.094 105.528V100.479C34.094 99.2484 33.097 98.2509 31.8662 98.2509Z" fill="white"/>
<path d="M22.8296 130.627C21.5991 130.627 20.6019 131.625 20.6019 132.855V137.904C20.6019 139.135 21.5991 140.132 22.8296 140.132C24.0601 140.132 25.0573 139.135 25.0573 137.904V132.855C25.0573 131.625 24.0601 130.627 22.8296 130.627Z" fill="white"/>
<path d="M40.9028 130.627C39.6724 130.627 38.6751 131.625 38.6751 132.855V137.904C38.6751 139.135 39.6724 140.132 40.9028 140.132C42.1333 140.132 43.1306 139.135 43.1306 137.904V132.855C43.1306 131.625 42.1333 130.627 40.9028 130.627Z" fill="white"/>
<path d="M31.8662 130.627C30.6358 130.627 29.6385 131.625 29.6385 132.855V137.904C29.6385 139.135 30.6358 140.132 31.8662 140.132C33.0967 140.132 34.094 139.135 34.094 137.904V132.855C34.094 131.625 33.097 130.627 31.8662 130.627Z" fill="white"/>
<path d="M22.8296 114.439C21.5991 114.439 20.6019 115.437 20.6019 116.667V121.717C20.6019 122.947 21.5991 123.944 22.8296 123.944C24.0601 123.944 25.0573 122.947 25.0573 121.717V116.667C25.0573 115.436 24.0601 114.439 22.8296 114.439Z" fill="white"/>
<path d="M40.9028 114.439C39.6724 114.439 38.6751 115.437 38.6751 116.667V121.717C38.6751 122.947 39.6724 123.944 40.9028 123.944C42.1333 123.944 43.1306 122.947 43.1306 121.717V116.667C43.1306 115.436 42.1333 114.439 40.9028 114.439Z" fill="white"/>
<path d="M31.8662 114.439C30.6358 114.439 29.6385 115.437 29.6385 116.667V121.717C29.6385 122.947 30.6358 123.944 31.8662 123.944C33.0967 123.944 34.094 122.947 34.094 121.717V116.667C34.094 115.436 33.097 114.439 31.8662 114.439Z" fill="white"/>
<path d="M70.0547 103.819C68.8242 103.819 67.827 104.817 67.827 106.047V111.096C67.827 112.326 68.8242 113.324 70.0547 113.324C71.2852 113.324 72.2824 112.326 72.2824 111.096V106.047C72.2824 104.817 71.2855 103.819 70.0547 103.819Z" fill="white"/>
<path d="M88.1282 103.819C86.8978 103.819 85.9005 104.817 85.9005 106.047V111.096C85.9005 112.326 86.8978 113.324 88.1282 113.324C89.3587 113.324 90.356 112.326 90.356 111.096V106.047C90.3557 104.817 89.3584 103.819 88.1282 103.819Z" fill="white"/>
<path d="M79.0913 103.819C77.8609 103.819 76.8636 104.817 76.8636 106.047V111.096C76.8636 112.326 77.8609 113.324 79.0913 113.324C80.3218 113.324 81.3191 112.326 81.3191 111.096V106.047C81.3191 104.817 80.3218 103.819 79.0913 103.819Z" fill="white"/>
<path d="M70.0547 75.5259C68.8242 75.5259 67.827 76.5234 67.827 77.7536V82.8032C67.827 84.0334 68.8242 85.031 70.0547 85.031C71.2852 85.031 72.2824 84.0334 72.2824 82.8032V77.7536C72.2824 76.5231 71.2855 75.5259 70.0547 75.5259Z" fill="white"/>
<path d="M88.1282 75.5259C86.8978 75.5259 85.9005 76.5234 85.9005 77.7536V82.8032C85.9005 84.0334 86.8978 85.031 88.1282 85.031C89.3587 85.031 90.356 84.0334 90.356 82.8032V77.7536C90.3557 76.5231 89.3584 75.5259 88.1282 75.5259Z" fill="white"/>
<path d="M79.0913 75.5259C77.8609 75.5259 76.8636 76.5234 76.8636 77.7536V82.8032C76.8636 84.0334 77.8609 85.031 79.0913 85.031C80.3218 85.031 81.3191 84.0334 81.3191 82.8032V77.7536C81.3191 76.5231 80.3218 75.5259 79.0913 75.5259Z" fill="white"/>
<path d="M70.0547 89.6721C68.8242 89.6721 67.827 90.6697 67.827 91.8999V96.9495C67.827 98.1796 68.8242 99.1772 70.0547 99.1772C71.2852 99.1772 72.2824 98.1796 72.2824 96.9495V91.8999C72.2824 90.6697 71.2855 89.6721 70.0547 89.6721Z" fill="white"/>
<path d="M88.1282 89.6721C86.8978 89.6721 85.9005 90.6697 85.9005 91.8999V96.9495C85.9005 98.1796 86.8978 99.1772 88.1282 99.1772C89.3587 99.1772 90.356 98.1796 90.356 96.9495V91.8999C90.3557 90.6697 89.3584 89.6721 88.1282 89.6721Z" fill="white"/>
<path d="M79.0913 89.6721C77.8609 89.6721 76.8636 90.6697 76.8636 91.8999V96.9495C76.8636 98.1796 77.8609 99.1772 79.0913 99.1772C80.3218 99.1772 81.3191 98.1796 81.3191 96.9495V91.8999C81.3191 90.6697 80.3218 89.6721 79.0913 89.6721Z" fill="white"/>
<path d="M70.0547 132.112C68.8242 132.112 67.827 133.11 67.827 134.34V139.39C67.827 140.62 68.8242 141.617 70.0547 141.617C71.2852 141.617 72.2824 140.62 72.2824 139.39V134.34C72.2824 133.11 71.2855 132.112 70.0547 132.112Z" fill="white"/>
<path d="M88.1282 132.112C86.8978 132.112 85.9005 133.11 85.9005 134.34V139.39C85.9005 140.62 86.8978 141.617 88.1282 141.617C89.3587 141.617 90.356 140.62 90.356 139.39V134.34C90.3557 133.11 89.3584 132.112 88.1282 132.112Z" fill="white"/>
<path d="M79.0913 132.112C77.8609 132.112 76.8636 133.11 76.8636 134.34V139.39C76.8636 140.62 77.8609 141.617 79.0913 141.617C80.3218 141.617 81.3191 140.62 81.3191 139.39V134.34C81.3191 133.11 80.3218 132.112 79.0913 132.112Z" fill="white"/>
<path d="M70.0547 117.966C68.8242 117.966 67.827 118.963 67.827 120.193V125.243C67.827 126.473 68.8242 127.471 70.0547 127.471C71.2852 127.471 72.2824 126.473 72.2824 125.243V120.193C72.2824 118.963 71.2855 117.966 70.0547 117.966Z" fill="white"/>
<path d="M88.1282 117.966C86.8978 117.966 85.9005 118.963 85.9005 120.193V125.243C85.9005 126.473 86.8978 127.471 88.1282 127.471C89.3587 127.471 90.356 126.473 90.356 125.243V120.193C90.3557 118.963 89.3584 117.966 88.1282 117.966Z" fill="white"/>
<path d="M79.0913 117.966C77.8609 117.966 76.8636 118.963 76.8636 120.193V125.243C76.8636 126.473 77.8609 127.471 79.0913 127.471C80.3218 127.471 81.3191 126.473 81.3191 125.243V120.193C81.3191 118.963 80.3218 117.966 79.0913 117.966Z" fill="white"/>
</svg>
