<svg width="150" height="150" viewBox="0 0 150 150" fill="none" xmlns="http://www.w3.org/2000/svg">
<g clip-path="url(#clip0)">
<path d="M85.7143 24.1071C85.7143 30.024 80.9169 34.8214 75 34.8214C69.0831 34.8214 64.2857 30.024 64.2857 24.1071C64.2857 18.1902 69.0831 13.3928 75 13.3928C80.9169 13.3928 85.7143 18.1902 85.7143 24.1071Z" fill="white"/>
<path d="M86.4846 99.1072L150 147.287V50.9269L86.4846 99.1072Z" fill="white"/>
<path d="M95.4581 48.2142C89.9336 58.0248 83.8061 67.5332 77.1423 76.6074C76.2726 77.7792 74.5985 78.0474 73.3926 77.1763C73.1925 77.0089 72.9911 76.8415 72.8237 76.6074C66.1612 67.5332 60.0337 58.0248 54.5092 48.2142H5.29044L67.9347 95.7589L73.3926 91.6076C74.3644 90.87 75.6696 90.87 76.6401 91.6076L82.098 95.7589L144.744 48.2142H95.4581ZM66.9643 85.7142H61.6071V80.3571H66.9643V85.7142ZM80.3571 85.7142H69.6429V80.3571H80.3571V85.7142ZM88.3929 85.7142H83.0357V80.3571H88.3929V85.7142Z" fill="white"/>
<path d="M0 50.9269V147.287L63.5154 99.1072L0 50.9269Z" fill="white"/>
<path d="M75 70.4459C80.726 62.4442 86.0151 54.1077 90.87 45.5357C95.5248 37.1652 99.1071 29.0628 99.1071 24.1071C99.1071 10.781 88.3262 0 75 0C61.6738 0 50.8929 10.781 50.8929 24.1071C50.8929 29.0628 54.4752 37.1652 59.13 45.5357C63.9849 54.1077 69.274 62.4442 75 70.4459ZM58.9286 24.1071C58.9286 15.2344 66.1272 8.03571 75 8.03571C83.8728 8.03571 91.0714 15.2344 91.0714 24.1071C91.0714 32.9799 83.8728 40.1786 75 40.1786C66.1272 40.1786 58.9286 32.9799 58.9286 24.1071Z" fill="white"/>
<path d="M5.29044 150H144.71L75 97.0983L5.29044 150Z" fill="white"/>
</g>
<defs>
<clipPath id="clip0">
<rect width="150" height="150" fill="white"/>
</clipPath>
</defs>
</svg>
