<svg width="150" height="150" viewBox="0 0 150 150" fill="none" xmlns="http://www.w3.org/2000/svg">
<path d="M147.07 49.8047H136.523V35.1562C136.523 33.5385 135.212 32.2266 133.594 32.2266H123.34V2.92969C123.34 1.31191 122.028 0 120.41 0H29.5898C27.9718 0 26.6602 1.31191 26.6602 2.92969V32.2266H16.4062C14.7882 32.2266 13.4766 33.5385 13.4766 35.1562V49.8047H2.92969C1.31162 49.8047 0 51.1166 0 52.7344V147.07C0 148.688 1.31162 150 2.92969 150H147.07C148.688 150 150 148.688 150 147.07V52.7344C150 51.1166 148.688 49.8047 147.07 49.8047ZM32.5195 5.85938H117.48V38.0859H32.5195V5.85938ZM19.3359 38.0859H26.6602V41.0156C26.6602 42.6334 27.9718 43.9453 29.5898 43.9453H120.41C122.028 43.9453 123.34 42.6334 123.34 41.0156V38.0859H130.664V49.8047H19.3359V38.0859ZM71.1914 144.141H53.6133V103.125H71.1914V144.141ZM77.0508 144.141V103.125H94.6289V144.141H77.0508ZM100.488 144.141V100.195C100.488 98.5775 99.1767 97.2656 97.5586 97.2656H50.6836C49.0655 97.2656 47.7539 98.5775 47.7539 100.195V144.141H5.85938V138.281H28.7109C30.3252 138.281 31.6406 136.966 31.6406 135.352C31.6406 133.737 30.3252 132.422 28.7109 132.422H5.85938V55.6641H144.141V132.422H121.289C119.675 132.422 118.359 133.737 118.359 135.352C118.359 136.966 119.675 138.281 121.289 138.281H144.141V144.141H100.488Z" fill="white"/>
<path d="M134.766 97.2656H111.328C109.71 97.2656 108.398 98.5775 108.398 100.195V123.633C108.398 125.251 109.71 126.562 111.328 126.562H134.766C136.384 126.562 137.695 125.251 137.695 123.633V100.195C137.695 98.5775 136.384 97.2656 134.766 97.2656ZM131.836 120.703H114.258V103.125H131.836V120.703Z" fill="white"/>
<path d="M137.695 88.4766V65.0391C137.695 63.4213 136.384 62.1094 134.766 62.1094H82.0312C80.4132 62.1094 79.1016 63.4213 79.1016 65.0391V88.4766C79.1016 90.0943 80.4132 91.4062 82.0312 91.4062H134.766C136.384 91.4062 137.695 90.0943 137.695 88.4766ZM131.836 85.5469H84.9609V67.9688H131.836V85.5469Z" fill="white"/>
<path d="M67.3828 62.1094H14.6484C13.0304 62.1094 11.7188 63.4213 11.7188 65.0391V88.4766C11.7188 90.0943 13.0304 91.4062 14.6484 91.4062H67.3828C69.0009 91.4062 70.3125 90.0943 70.3125 88.4766V65.0391C70.3125 63.4213 69.0009 62.1094 67.3828 62.1094ZM64.4531 85.5469H17.5781V67.9688H64.4531V85.5469Z" fill="white"/>
<path d="M41.0156 123.633V100.195C41.0156 98.5775 39.704 97.2656 38.0859 97.2656H14.6484C13.0304 97.2656 11.7188 98.5775 11.7188 100.195V123.633C11.7188 125.251 13.0304 126.562 14.6484 126.562H38.0859C39.704 126.562 41.0156 125.251 41.0156 123.633ZM35.1562 120.703H17.5781V103.125H35.1562V120.703Z" fill="white"/>
<path d="M109.57 132.422C107.956 132.422 106.641 133.737 106.641 135.352C106.641 136.966 107.956 138.281 109.57 138.281C111.185 138.281 112.5 136.966 112.5 135.352C112.5 133.737 111.185 132.422 109.57 132.422Z" fill="white"/>
<path d="M40.4297 132.422C38.8154 132.422 37.5 133.737 37.5 135.352C37.5 136.966 38.8154 138.281 40.4297 138.281C42.0439 138.281 43.3594 136.966 43.3594 135.352C43.3594 133.737 42.0439 132.422 40.4297 132.422Z" fill="white"/>
<path d="M51.4667 12.4093C50.2374 11.2688 48.537 10.6155 46.5973 10.6155C46.5973 10.6155 40.5609 10.6155 40.5331 10.6155C39.7901 10.6155 38.8336 11.093 38.8336 11.9921C38.8336 11.9921 38.8336 30.4342 38.8336 30.6238C38.8336 31.7447 40.2557 32.0315 41.1193 32.0315C41.9827 32.0315 43.4042 31.7379 43.4042 30.6252V24.2971C43.4042 24.2971 46.3019 24.2971 46.3043 24.2971C50.4852 24.2971 53.5116 21.8116 53.5116 17.5005C53.5116 17.5005 53.5116 17.3549 53.5116 17.3541C53.5113 15.3039 52.7431 13.5938 51.4667 12.4093ZM48.941 17.8518C48.941 19.8053 48.0621 20.7815 46.3043 20.7815H43.4042V14.5999H46.3043C48.0621 14.5999 48.941 15.5766 48.941 17.5295V17.8518Z" fill="white"/>
<path d="M70.4607 12.4597C69.1723 11.2819 67.3901 10.6157 65.376 10.6157C61.1112 10.6157 58.1982 13.1845 58.1982 17.5298C58.1982 17.5298 58.1982 25.2844 58.1982 25.2935C58.1982 29.6194 61.06 32.2075 65.376 32.2075C69.6475 32.2075 72.5833 29.6619 72.5833 25.2935C72.5833 25.2935 72.5833 17.5471 72.5833 17.5298C72.5833 15.4125 71.7817 13.667 70.4607 12.4597ZM68.0127 25.2932C68.0127 27.2464 67.1338 28.2228 65.376 28.2228C63.6372 28.2228 62.7689 27.2464 62.7689 25.2932V17.5295C62.7689 15.5766 63.6375 14.5998 65.376 14.5998C67.1338 14.5998 68.0127 15.5766 68.0127 17.5295V25.2932Z" fill="white"/>
<path d="M89.3824 20.7875C88.6263 20.1776 87.7561 19.6936 86.8696 19.2711C85.6456 18.6878 82.5155 17.8731 82.5143 16.1829C82.5132 14.7486 84.3688 14.424 85.444 14.424C86.9045 14.424 88.1095 15.5328 89.4562 15.5372C90.641 15.541 91.2741 14.1102 91.2741 13.0956C91.2738 10.5784 87.1831 10.4396 85.444 10.4396C83.3739 10.4396 81.6061 10.9523 80.1413 11.9777C78.6765 13.0031 77.944 14.5508 77.944 16.6215C77.944 17.8912 78.2613 18.9846 78.8962 19.9025C79.5308 20.8209 80.3068 21.5287 81.2253 22.0265C82.863 22.9154 87.2297 24.0776 87.2311 26.4052C87.232 27.8706 85.5867 28.34 84.3896 28.3403C82.6948 28.3403 81.6923 27.2648 80.3906 26.4105C79.568 25.8705 78.619 26.0528 78.0173 26.8754C77.6168 27.4224 77.417 27.9691 77.4167 28.5157C77.4167 31.4683 82.3462 32.3243 84.4772 32.3243C86.3001 32.3243 88.3099 31.8655 89.7803 30.6415C91.1279 29.5197 91.8015 27.9518 91.8015 25.9376C91.8017 23.9689 90.9592 22.0596 89.3824 20.7875Z" fill="white"/>
<path d="M109.673 10.6155C109.673 10.6155 97.0846 10.6155 97.0166 10.6155C95.9936 10.6155 95.6394 11.7349 95.6394 12.5792C95.6394 13.3673 95.9821 14.5999 97.0163 14.5999H101.059C101.059 14.5999 101.059 30.4843 101.059 30.6147C101.059 31.7268 102.487 32.0315 103.345 32.0315C104.211 32.0315 105.63 31.7248 105.63 30.6156V14.5999C105.63 14.5999 109.635 14.5999 109.672 14.5999C110.696 14.5999 111.05 13.406 111.05 12.5795C111.05 11.79 110.68 10.6155 109.673 10.6155Z" fill="white"/>
</svg>
